<mxfile modified="2020-02-10T02:54:32.173Z" host="www.draw.io" agent="Mozilla/5.0 (Macintosh; Intel Mac OS X 10_12_6) AppleWebKit/537.36 (KHTML, like Gecko) Chrome/80.0.3987.87 Safari/537.36" etag="QvL4HUz26v6qbdeEeipm" version="12.6.6" type="github">
  <diagram id="JTEC7zDQZaKKNVADHG2T" name="Page-1">
    <mxGraphModel dx="946" dy="477" grid="0" gridSize="10" guides="1" tooltips="1" connect="1" arrows="1" fold="1" page="1" pageScale="1" pageWidth="827" pageHeight="1169" math="0" shadow="0">
      <root>
        <mxCell id="0"/>
        <mxCell id="1" parent="0"/>
        <mxCell id="XV6cIktCAMGyIGafRsGl-1" value="node" style="swimlane;fontStyle=0;childLayout=stackLayout;horizontal=1;startSize=26;fillColor=none;horizontalStack=0;resizeParent=1;resizeParentMax=0;resizeLast=0;collapsible=1;marginBottom=0;" parent="1" vertex="1">
          <mxGeometry x="440" y="90" width="140" height="104" as="geometry"/>
        </mxCell>
        <mxCell id="XV6cIktCAMGyIGafRsGl-2" value="+ state: boolean&#xa;" style="text;strokeColor=none;fillColor=none;align=left;verticalAlign=top;spacingLeft=4;spacingRight=4;overflow=hidden;rotatable=0;points=[[0,0.5],[1,0.5]];portConstraint=eastwest;" parent="XV6cIktCAMGyIGafRsGl-1" vertex="1">
          <mxGeometry y="26" width="140" height="26" as="geometry"/>
        </mxCell>
        <mxCell id="XV6cIktCAMGyIGafRsGl-3" value="+ pos_x: float" style="text;strokeColor=none;fillColor=none;align=left;verticalAlign=top;spacingLeft=4;spacingRight=4;overflow=hidden;rotatable=0;points=[[0,0.5],[1,0.5]];portConstraint=eastwest;" parent="XV6cIktCAMGyIGafRsGl-1" vertex="1">
          <mxGeometry y="52" width="140" height="26" as="geometry"/>
        </mxCell>
        <mxCell id="XV6cIktCAMGyIGafRsGl-4" value="+ pos_y: float" style="text;strokeColor=none;fillColor=none;align=left;verticalAlign=top;spacingLeft=4;spacingRight=4;overflow=hidden;rotatable=0;points=[[0,0.5],[1,0.5]];portConstraint=eastwest;" parent="XV6cIktCAMGyIGafRsGl-1" vertex="1">
          <mxGeometry y="78" width="140" height="26" as="geometry"/>
        </mxCell>
        <mxCell id="XV6cIktCAMGyIGafRsGl-20" style="edgeStyle=orthogonalEdgeStyle;rounded=0;orthogonalLoop=1;jettySize=auto;html=1;exitX=0.5;exitY=0;exitDx=0;exitDy=0;entryX=0.336;entryY=1.062;entryDx=0;entryDy=0;dashed=1;endArrow=classic;endFill=0;endSize=12;entryPerimeter=0;" parent="1" source="XV6cIktCAMGyIGafRsGl-7" target="XV6cIktCAMGyIGafRsGl-4" edge="1">
          <mxGeometry relative="1" as="geometry">
            <Array as="points">
              <mxPoint x="428" y="227"/>
              <mxPoint x="487" y="227"/>
            </Array>
          </mxGeometry>
        </mxCell>
        <mxCell id="XV6cIktCAMGyIGafRsGl-7" value="terminal" style="swimlane;fontStyle=0;childLayout=stackLayout;horizontal=1;startSize=26;fillColor=none;horizontalStack=0;resizeParent=1;resizeParentMax=0;resizeLast=0;collapsible=1;marginBottom=0;" parent="1" vertex="1">
          <mxGeometry x="358" y="259" width="140" height="78" as="geometry"/>
        </mxCell>
        <mxCell id="XV6cIktCAMGyIGafRsGl-8" value="+ os: enumerate" style="text;strokeColor=none;fillColor=none;align=left;verticalAlign=top;spacingLeft=4;spacingRight=4;overflow=hidden;rotatable=0;points=[[0,0.5],[1,0.5]];portConstraint=eastwest;" parent="XV6cIktCAMGyIGafRsGl-7" vertex="1">
          <mxGeometry y="26" width="140" height="26" as="geometry"/>
        </mxCell>
        <mxCell id="XV6cIktCAMGyIGafRsGl-9" value="+ memory: int" style="text;strokeColor=none;fillColor=none;align=left;verticalAlign=top;spacingLeft=4;spacingRight=4;overflow=hidden;rotatable=0;points=[[0,0.5],[1,0.5]];portConstraint=eastwest;" parent="XV6cIktCAMGyIGafRsGl-7" vertex="1">
          <mxGeometry y="52" width="140" height="26" as="geometry"/>
        </mxCell>
        <mxCell id="XV6cIktCAMGyIGafRsGl-35" style="edgeStyle=orthogonalEdgeStyle;rounded=0;orthogonalLoop=1;jettySize=auto;html=1;exitX=0.5;exitY=0;exitDx=0;exitDy=0;endArrow=classic;endFill=0;endSize=12;dashed=1;entryX=0.604;entryY=1.031;entryDx=0;entryDy=0;entryPerimeter=0;" parent="1" source="XV6cIktCAMGyIGafRsGl-11" target="XV6cIktCAMGyIGafRsGl-4" edge="1">
          <mxGeometry relative="1" as="geometry">
            <mxPoint x="525" y="200" as="targetPoint"/>
          </mxGeometry>
        </mxCell>
        <mxCell id="XV6cIktCAMGyIGafRsGl-11" value="router" style="swimlane;fontStyle=0;childLayout=stackLayout;horizontal=1;startSize=26;fillColor=none;horizontalStack=0;resizeParent=1;resizeParentMax=0;resizeLast=0;collapsible=1;marginBottom=0;" parent="1" vertex="1">
          <mxGeometry x="531" y="259" width="140" height="52" as="geometry"/>
        </mxCell>
        <mxCell id="XV6cIktCAMGyIGafRsGl-12" value="+ protocol:enumerate" style="text;strokeColor=none;fillColor=none;align=left;verticalAlign=top;spacingLeft=4;spacingRight=4;overflow=hidden;rotatable=0;points=[[0,0.5],[1,0.5]];portConstraint=eastwest;" parent="XV6cIktCAMGyIGafRsGl-11" vertex="1">
          <mxGeometry y="26" width="140" height="26" as="geometry"/>
        </mxCell>
        <mxCell id="XV6cIktCAMGyIGafRsGl-15" value="interface" style="swimlane;fontStyle=0;childLayout=stackLayout;horizontal=1;startSize=26;fillColor=none;horizontalStack=0;resizeParent=1;resizeParentMax=0;resizeLast=0;collapsible=1;marginBottom=0;" parent="1" vertex="1">
          <mxGeometry x="640" y="90" width="140" height="104" as="geometry"/>
        </mxCell>
        <mxCell id="XV6cIktCAMGyIGafRsGl-16" value="+ ipï¼šstring" style="text;strokeColor=none;fillColor=none;align=left;verticalAlign=top;spacingLeft=4;spacingRight=4;overflow=hidden;rotatable=0;points=[[0,0.5],[1,0.5]];portConstraint=eastwest;" parent="XV6cIktCAMGyIGafRsGl-15" vertex="1">
          <mxGeometry y="26" width="140" height="26" as="geometry"/>
        </mxCell>
        <mxCell id="XV6cIktCAMGyIGafRsGl-17" value="+ subnet: string" style="text;strokeColor=none;fillColor=none;align=left;verticalAlign=top;spacingLeft=4;spacingRight=4;overflow=hidden;rotatable=0;points=[[0,0.5],[1,0.5]];portConstraint=eastwest;" parent="XV6cIktCAMGyIGafRsGl-15" vertex="1">
          <mxGeometry y="52" width="140" height="26" as="geometry"/>
        </mxCell>
        <mxCell id="XV6cIktCAMGyIGafRsGl-18" value="+ state: boolean" style="text;strokeColor=none;fillColor=none;align=left;verticalAlign=top;spacingLeft=4;spacingRight=4;overflow=hidden;rotatable=0;points=[[0,0.5],[1,0.5]];portConstraint=eastwest;" parent="XV6cIktCAMGyIGafRsGl-15" vertex="1">
          <mxGeometry y="78" width="140" height="26" as="geometry"/>
        </mxCell>
        <mxCell id="XV6cIktCAMGyIGafRsGl-19" value="&lt;b&gt;&lt;font style=&quot;font-size: 13px&quot;&gt;. . .&lt;/font&gt;&lt;/b&gt;" style="text;html=1;strokeColor=none;fillColor=none;align=center;verticalAlign=middle;whiteSpace=wrap;rounded=0;" parent="1" vertex="1">
          <mxGeometry x="720" y="278" width="40" height="20" as="geometry"/>
        </mxCell>
        <mxCell id="XV6cIktCAMGyIGafRsGl-25" style="edgeStyle=orthogonalEdgeStyle;rounded=0;orthogonalLoop=1;jettySize=auto;html=1;exitX=0;exitY=0.5;exitDx=0;exitDy=0;entryX=1;entryY=0.5;entryDx=0;entryDy=0;endArrow=diamondThin;endFill=1;endSize=15;" parent="1" source="XV6cIktCAMGyIGafRsGl-16" target="XV6cIktCAMGyIGafRsGl-2" edge="1">
          <mxGeometry relative="1" as="geometry"/>
        </mxCell>
        <mxCell id="XV6cIktCAMGyIGafRsGl-26" value="mobility" style="swimlane;fontStyle=0;childLayout=stackLayout;horizontal=1;startSize=26;fillColor=none;horizontalStack=0;resizeParent=1;resizeParentMax=0;resizeLast=0;collapsible=1;marginBottom=0;" parent="1" vertex="1">
          <mxGeometry x="250" y="90" width="140" height="156" as="geometry"/>
        </mxCell>
        <mxCell id="XV6cIktCAMGyIGafRsGl-27" value="+ type: enumerate" style="text;strokeColor=none;fillColor=none;align=left;verticalAlign=top;spacingLeft=4;spacingRight=4;overflow=hidden;rotatable=0;points=[[0,0.5],[1,0.5]];portConstraint=eastwest;" parent="XV6cIktCAMGyIGafRsGl-26" vertex="1">
          <mxGeometry y="26" width="140" height="26" as="geometry"/>
        </mxCell>
        <mxCell id="XV6cIktCAMGyIGafRsGl-31" value="+ start_time: int" style="text;strokeColor=none;fillColor=none;align=left;verticalAlign=top;spacingLeft=4;spacingRight=4;overflow=hidden;rotatable=0;points=[[0,0.5],[1,0.5]];portConstraint=eastwest;" parent="XV6cIktCAMGyIGafRsGl-26" vertex="1">
          <mxGeometry y="52" width="140" height="26" as="geometry"/>
        </mxCell>
        <mxCell id="XV6cIktCAMGyIGafRsGl-32" value="+ end_time: int" style="text;strokeColor=none;fillColor=none;align=left;verticalAlign=top;spacingLeft=4;spacingRight=4;overflow=hidden;rotatable=0;points=[[0,0.5],[1,0.5]];portConstraint=eastwest;" parent="XV6cIktCAMGyIGafRsGl-26" vertex="1">
          <mxGeometry y="78" width="140" height="26" as="geometry"/>
        </mxCell>
        <mxCell id="XV6cIktCAMGyIGafRsGl-33" value="+ dest_x: float" style="text;strokeColor=none;fillColor=none;align=left;verticalAlign=top;spacingLeft=4;spacingRight=4;overflow=hidden;rotatable=0;points=[[0,0.5],[1,0.5]];portConstraint=eastwest;" parent="XV6cIktCAMGyIGafRsGl-26" vertex="1">
          <mxGeometry y="104" width="140" height="26" as="geometry"/>
        </mxCell>
        <mxCell id="XV6cIktCAMGyIGafRsGl-34" value="+ dest_y: float" style="text;strokeColor=none;fillColor=none;align=left;verticalAlign=top;spacingLeft=4;spacingRight=4;overflow=hidden;rotatable=0;points=[[0,0.5],[1,0.5]];portConstraint=eastwest;" parent="XV6cIktCAMGyIGafRsGl-26" vertex="1">
          <mxGeometry y="130" width="140" height="26" as="geometry"/>
        </mxCell>
        <mxCell id="XV6cIktCAMGyIGafRsGl-30" style="edgeStyle=orthogonalEdgeStyle;rounded=0;orthogonalLoop=1;jettySize=auto;html=1;exitX=1;exitY=0.5;exitDx=0;exitDy=0;entryX=0;entryY=0.5;entryDx=0;entryDy=0;endArrow=diamondThin;endFill=1;endSize=15;" parent="1" source="XV6cIktCAMGyIGafRsGl-27" target="XV6cIktCAMGyIGafRsGl-2" edge="1">
          <mxGeometry relative="1" as="geometry"/>
        </mxCell>
      </root>
    </mxGraphModel>
  </diagram>
</mxfile>
